<mxfile host="app.diagrams.net" modified="2024-03-05T02:44:34.273Z" agent="Mozilla/5.0 (Windows NT 10.0; Win64; x64) AppleWebKit/537.36 (KHTML, like Gecko) Chrome/122.0.0.0 Safari/537.36" etag="zMgWredAc-HIg63EBzA9" version="24.0.0" type="github">
  <diagram name="Página-1" id="UJ62ChhfTQ6m8uqB1wY3">
    <mxGraphModel dx="1623" dy="432" grid="1" gridSize="10" guides="1" tooltips="1" connect="1" arrows="1" fold="1" page="1" pageScale="1" pageWidth="827" pageHeight="1169" math="0" shadow="0">
      <root>
        <mxCell id="0" />
        <mxCell id="1" parent="0" />
        <mxCell id="j7wJihQbIBhU1Gi72-DJ-12" value="&lt;font size=&quot;1&quot; face=&quot;Lucida Console&quot;&gt;&lt;b style=&quot;font-size: 16px;&quot;&gt;Arquitectura Sistemas de Información&lt;/b&gt;&lt;/font&gt;" style="shape=module;align=left;spacingLeft=20;align=center;verticalAlign=top;whiteSpace=wrap;html=1;fillColor=none;" vertex="1" parent="1">
          <mxGeometry x="454" y="420" width="401" height="190" as="geometry" />
        </mxCell>
        <mxCell id="j7wJihQbIBhU1Gi72-DJ-44" value="" style="group" vertex="1" connectable="0" parent="1">
          <mxGeometry x="-30" y="425" width="355.5" height="190" as="geometry" />
        </mxCell>
        <mxCell id="j7wJihQbIBhU1Gi72-DJ-26" value="&lt;font size=&quot;1&quot; face=&quot;Lucida Console&quot;&gt;&lt;b style=&quot;font-size: 16px;&quot;&gt;Arquitectura de Información&lt;/b&gt;&lt;/font&gt;" style="shape=module;align=left;spacingLeft=20;align=center;verticalAlign=top;whiteSpace=wrap;html=1;fillColor=none;" vertex="1" parent="j7wJihQbIBhU1Gi72-DJ-44">
          <mxGeometry width="355.5" height="185" as="geometry" />
        </mxCell>
        <mxCell id="j7wJihQbIBhU1Gi72-DJ-30" value="ETL" style="html=1;outlineConnect=0;whiteSpace=wrap;fillColor=#fff2cc;shape=mxgraph.archimate3.application;appType=comp;archiType=square;horizontal=0;strokeColor=#d6b656;fontSize=14;" vertex="1" parent="j7wJihQbIBhU1Gi72-DJ-44">
          <mxGeometry x="140" y="35" width="30" height="120" as="geometry" />
        </mxCell>
        <mxCell id="j7wJihQbIBhU1Gi72-DJ-31" value="Presentación" style="html=1;outlineConnect=0;whiteSpace=wrap;fillColor=#fff2cc;shape=mxgraph.archimate3.application;appType=comp;archiType=square;horizontal=0;strokeColor=#d6b656;fontSize=14;" vertex="1" parent="j7wJihQbIBhU1Gi72-DJ-44">
          <mxGeometry x="290" y="35" width="30" height="120" as="geometry" />
        </mxCell>
        <mxCell id="j7wJihQbIBhU1Gi72-DJ-35" value="" style="edgeStyle=orthogonalEdgeStyle;rounded=0;orthogonalLoop=1;jettySize=auto;html=1;" edge="1" parent="j7wJihQbIBhU1Gi72-DJ-44" source="j7wJihQbIBhU1Gi72-DJ-28" target="j7wJihQbIBhU1Gi72-DJ-31">
          <mxGeometry relative="1" as="geometry" />
        </mxCell>
        <mxCell id="j7wJihQbIBhU1Gi72-DJ-36" value="" style="group" vertex="1" connectable="0" parent="j7wJihQbIBhU1Gi72-DJ-44">
          <mxGeometry x="200" y="30" width="60" height="130" as="geometry" />
        </mxCell>
        <mxCell id="j7wJihQbIBhU1Gi72-DJ-28" value="" style="verticalAlign=top;verticalLabelPosition=bottom;labelPosition=center;align=center;html=1;outlineConnect=0;fillColor=#d5e8d4;strokeColor=#82b366;gradientDirection=north;strokeWidth=2;shape=mxgraph.networks.server;" vertex="1" parent="j7wJihQbIBhU1Gi72-DJ-36">
          <mxGeometry width="60" height="130" as="geometry" />
        </mxCell>
        <mxCell id="j7wJihQbIBhU1Gi72-DJ-27" value="" style="verticalAlign=top;verticalLabelPosition=bottom;labelPosition=center;align=center;html=1;outlineConnect=0;fillColor=#ffe6cc;strokeColor=#d79b00;gradientDirection=north;strokeWidth=2;shape=mxgraph.networks.storage;" vertex="1" parent="j7wJihQbIBhU1Gi72-DJ-36">
          <mxGeometry x="18.75" y="100" width="22.5" height="30" as="geometry" />
        </mxCell>
        <mxCell id="j7wJihQbIBhU1Gi72-DJ-37" value="" style="edgeStyle=orthogonalEdgeStyle;rounded=0;orthogonalLoop=1;jettySize=auto;html=1;" edge="1" parent="j7wJihQbIBhU1Gi72-DJ-44" source="j7wJihQbIBhU1Gi72-DJ-30" target="j7wJihQbIBhU1Gi72-DJ-28">
          <mxGeometry relative="1" as="geometry" />
        </mxCell>
        <mxCell id="j7wJihQbIBhU1Gi72-DJ-42" value="" style="edgeStyle=orthogonalEdgeStyle;rounded=0;orthogonalLoop=1;jettySize=auto;html=1;entryX=0;entryY=0.5;entryDx=0;entryDy=0;entryPerimeter=0;" edge="1" parent="j7wJihQbIBhU1Gi72-DJ-44" source="j7wJihQbIBhU1Gi72-DJ-39" target="j7wJihQbIBhU1Gi72-DJ-30">
          <mxGeometry relative="1" as="geometry" />
        </mxCell>
        <mxCell id="j7wJihQbIBhU1Gi72-DJ-39" value="Fuentes de Información" style="html=1;outlineConnect=0;whiteSpace=wrap;fillColor=#ffff99;shape=mxgraph.archimate3.businessObject;overflow=fill;fontFamily=Lucida Console;fontStyle=0" vertex="1" parent="j7wJihQbIBhU1Gi72-DJ-44">
          <mxGeometry x="20" y="70" width="100" height="50" as="geometry" />
        </mxCell>
        <mxCell id="j7wJihQbIBhU1Gi72-DJ-43" value="Bodega de&lt;span style=&quot;background-color: initial; font-size: 13px;&quot;&gt;&amp;nbsp;Datos&lt;/span&gt;" style="text;html=1;align=center;verticalAlign=middle;resizable=0;points=[];autosize=1;strokeColor=none;fillColor=none;fontStyle=1;fontFamily=Lucida Console;fontSize=13;" vertex="1" parent="j7wJihQbIBhU1Gi72-DJ-44">
          <mxGeometry x="160" y="160" width="140" height="30" as="geometry" />
        </mxCell>
        <mxCell id="j7wJihQbIBhU1Gi72-DJ-1" value="&lt;font size=&quot;1&quot; face=&quot;Lucida Console&quot;&gt;&lt;b style=&quot;font-size: 13px;&quot;&gt;Observatorio de Drogas de Colombia&lt;/b&gt;&lt;/font&gt;" style="labelPosition=center;verticalLabelPosition=middle;align=center;html=1;shape=mxgraph.basic.button;dx=10;whiteSpace=wrap;fillColor=#eeeeee;strokeColor=#36393d;" vertex="1" parent="1">
          <mxGeometry x="310" y="440" width="170" height="160" as="geometry" />
        </mxCell>
        <mxCell id="j7wJihQbIBhU1Gi72-DJ-2" value="&lt;font face=&quot;Lucida Console&quot;&gt;Subsitio Web&lt;/font&gt;" style="html=1;outlineConnect=0;whiteSpace=wrap;fillColor=#ffe6cc;shape=mxgraph.archimate3.application;appType=func;archiType=rounded;strokeColor=#d79b00;fontStyle=1" vertex="1" parent="1">
          <mxGeometry x="609.5" y="470" width="130" height="50" as="geometry" />
        </mxCell>
        <mxCell id="j7wJihQbIBhU1Gi72-DJ-3" value="&lt;font face=&quot;Lucida Console&quot;&gt;SAT&lt;/font&gt;" style="html=1;outlineConnect=0;whiteSpace=wrap;fillColor=#ffe6cc;shape=mxgraph.archimate3.application;appType=func;archiType=rounded;strokeColor=#d79b00;fontStyle=1" vertex="1" parent="1">
          <mxGeometry x="499.5" y="540" width="70" height="50" as="geometry" />
        </mxCell>
        <mxCell id="j7wJihQbIBhU1Gi72-DJ-4" value="&lt;font face=&quot;Lucida Console&quot;&gt;SUICAD&lt;/font&gt;" style="html=1;outlineConnect=0;whiteSpace=wrap;fillColor=#ffe6cc;shape=mxgraph.archimate3.application;appType=func;archiType=rounded;strokeColor=#d79b00;fontStyle=1" vertex="1" parent="1">
          <mxGeometry x="589.5" y="540" width="70" height="50" as="geometry" />
        </mxCell>
        <mxCell id="j7wJihQbIBhU1Gi72-DJ-5" value="&lt;font face=&quot;Lucida Console&quot;&gt;SIDCO&lt;/font&gt;" style="html=1;outlineConnect=0;whiteSpace=wrap;fillColor=#ffe6cc;shape=mxgraph.archimate3.application;appType=func;archiType=rounded;strokeColor=#d79b00;fontStyle=1" vertex="1" parent="1">
          <mxGeometry x="679.5" y="540" width="70" height="50" as="geometry" />
        </mxCell>
        <mxCell id="j7wJihQbIBhU1Gi72-DJ-6" value="&lt;font face=&quot;Lucida Console&quot;&gt;C. GEOGRÁFICO&lt;/font&gt;" style="html=1;outlineConnect=0;whiteSpace=wrap;fillColor=#ffe6cc;shape=mxgraph.archimate3.application;appType=func;archiType=rounded;strokeColor=#d79b00;fontStyle=1" vertex="1" parent="1">
          <mxGeometry x="769.5" y="540" width="80" height="50" as="geometry" />
        </mxCell>
        <mxCell id="j7wJihQbIBhU1Gi72-DJ-7" value="" style="endArrow=classic;startArrow=classic;html=1;rounded=0;entryX=0;entryY=0.5;entryDx=0;entryDy=0;entryPerimeter=0;exitX=0.5;exitY=0;exitDx=0;exitDy=0;exitPerimeter=0;" edge="1" parent="1" source="j7wJihQbIBhU1Gi72-DJ-3" target="j7wJihQbIBhU1Gi72-DJ-2">
          <mxGeometry width="50" height="50" relative="1" as="geometry">
            <mxPoint x="649.5" y="550" as="sourcePoint" />
            <mxPoint x="699.5" y="500" as="targetPoint" />
            <Array as="points">
              <mxPoint x="534.5" y="495" />
            </Array>
          </mxGeometry>
        </mxCell>
        <mxCell id="j7wJihQbIBhU1Gi72-DJ-8" value="" style="endArrow=classic;startArrow=classic;html=1;rounded=0;entryX=1;entryY=0.5;entryDx=0;entryDy=0;entryPerimeter=0;exitX=0.5;exitY=0;exitDx=0;exitDy=0;exitPerimeter=0;" edge="1" parent="1" source="j7wJihQbIBhU1Gi72-DJ-6" target="j7wJihQbIBhU1Gi72-DJ-2">
          <mxGeometry width="50" height="50" relative="1" as="geometry">
            <mxPoint x="649.5" y="550" as="sourcePoint" />
            <mxPoint x="699.5" y="500" as="targetPoint" />
            <Array as="points">
              <mxPoint x="809.5" y="495" />
            </Array>
          </mxGeometry>
        </mxCell>
        <mxCell id="j7wJihQbIBhU1Gi72-DJ-9" value="" style="endArrow=classic;startArrow=classic;html=1;rounded=0;exitX=1;exitY=0.5;exitDx=0;exitDy=0;exitPerimeter=0;entryX=0;entryY=0.5;entryDx=0;entryDy=0;entryPerimeter=0;" edge="1" parent="1" source="j7wJihQbIBhU1Gi72-DJ-3" target="j7wJihQbIBhU1Gi72-DJ-4">
          <mxGeometry width="50" height="50" relative="1" as="geometry">
            <mxPoint x="649.5" y="550" as="sourcePoint" />
            <mxPoint x="699.5" y="500" as="targetPoint" />
          </mxGeometry>
        </mxCell>
        <mxCell id="j7wJihQbIBhU1Gi72-DJ-10" value="" style="endArrow=classic;startArrow=classic;html=1;rounded=0;exitX=1;exitY=0.5;exitDx=0;exitDy=0;exitPerimeter=0;entryX=0;entryY=0.5;entryDx=0;entryDy=0;entryPerimeter=0;" edge="1" parent="1" source="j7wJihQbIBhU1Gi72-DJ-4" target="j7wJihQbIBhU1Gi72-DJ-5">
          <mxGeometry width="50" height="50" relative="1" as="geometry">
            <mxPoint x="649.5" y="550" as="sourcePoint" />
            <mxPoint x="699.5" y="500" as="targetPoint" />
          </mxGeometry>
        </mxCell>
        <mxCell id="j7wJihQbIBhU1Gi72-DJ-11" value="" style="endArrow=classic;startArrow=classic;html=1;rounded=0;entryX=0;entryY=0.5;entryDx=0;entryDy=0;entryPerimeter=0;exitX=1;exitY=0.5;exitDx=0;exitDy=0;exitPerimeter=0;" edge="1" parent="1" source="j7wJihQbIBhU1Gi72-DJ-5" target="j7wJihQbIBhU1Gi72-DJ-6">
          <mxGeometry width="50" height="50" relative="1" as="geometry">
            <mxPoint x="649.5" y="550" as="sourcePoint" />
            <mxPoint x="699.5" y="500" as="targetPoint" />
          </mxGeometry>
        </mxCell>
        <mxCell id="j7wJihQbIBhU1Gi72-DJ-45" value="Arquitectura de Tecnología" style="html=1;outlineConnect=0;whiteSpace=wrap;fillColor=#AFFFAF;shape=mxgraph.archimate3.application;appType=interface;archiType=square;fontFamily=Lucida Console;fontSize=16;fontStyle=1" vertex="1" parent="1">
          <mxGeometry x="-21" y="708" width="876" height="75" as="geometry" />
        </mxCell>
        <mxCell id="j7wJihQbIBhU1Gi72-DJ-46" value="Arquitectura de seguridad" style="html=1;outlineConnect=0;whiteSpace=wrap;fillColor=#CCCCFF;shape=mxgraph.archimate3.application;appType=driver;archiType=oct;fontSize=15;fontFamily=Lucida Console;fontStyle=1" vertex="1" parent="1">
          <mxGeometry x="-21" y="622" width="876" height="75" as="geometry" />
        </mxCell>
        <mxCell id="j7wJihQbIBhU1Gi72-DJ-47" value="Estructura Organizacional" style="html=1;outlineConnect=0;whiteSpace=wrap;fillColor=#F5DEAA;shape=mxgraph.archimate3.application;appType=capability;archiType=rounded;fontSize=15;fontFamily=Lucida Console;fontStyle=1" vertex="1" parent="1">
          <mxGeometry x="72.75" y="340" width="150" height="50" as="geometry" />
        </mxCell>
        <mxCell id="j7wJihQbIBhU1Gi72-DJ-48" value="Mapa estratégico" style="html=1;outlineConnect=0;whiteSpace=wrap;fillColor=#F5DEAA;shape=mxgraph.archimate3.application;appType=capability;archiType=rounded;fontSize=15;fontFamily=Lucida Console;fontStyle=1" vertex="1" parent="1">
          <mxGeometry x="599.5" y="340" width="150" height="50" as="geometry" />
        </mxCell>
        <mxCell id="j7wJihQbIBhU1Gi72-DJ-49" value="Principios" style="html=1;outlineConnect=0;whiteSpace=wrap;fillColor=#F5DEAA;shape=mxgraph.archimate3.application;appType=capability;archiType=rounded;fontSize=15;fontFamily=Lucida Console;fontStyle=1" vertex="1" parent="1">
          <mxGeometry x="222.75" y="260" width="150" height="50" as="geometry" />
        </mxCell>
        <mxCell id="j7wJihQbIBhU1Gi72-DJ-50" value="Equipo AE" style="html=1;outlineConnect=0;whiteSpace=wrap;fillColor=#F5DEAA;shape=mxgraph.archimate3.application;appType=capability;archiType=rounded;fontSize=15;fontFamily=Lucida Console;fontStyle=1" vertex="1" parent="1">
          <mxGeometry x="449.5" y="260" width="150" height="50" as="geometry" />
        </mxCell>
        <mxCell id="j7wJihQbIBhU1Gi72-DJ-51" value="" style="endArrow=classic;startArrow=classic;html=1;rounded=0;entryX=0;entryY=0.5;entryDx=0;entryDy=0;entryPerimeter=0;exitX=0.5;exitY=0;exitDx=0;exitDy=0;exitPerimeter=0;" edge="1" parent="1" source="j7wJihQbIBhU1Gi72-DJ-47" target="j7wJihQbIBhU1Gi72-DJ-49">
          <mxGeometry width="50" height="50" relative="1" as="geometry">
            <mxPoint x="380" y="490" as="sourcePoint" />
            <mxPoint x="430" y="440" as="targetPoint" />
            <Array as="points">
              <mxPoint x="148" y="285" />
            </Array>
          </mxGeometry>
        </mxCell>
        <mxCell id="j7wJihQbIBhU1Gi72-DJ-52" value="" style="endArrow=classic;startArrow=classic;html=1;rounded=0;exitX=1;exitY=0.5;exitDx=0;exitDy=0;exitPerimeter=0;entryX=0;entryY=0.5;entryDx=0;entryDy=0;entryPerimeter=0;" edge="1" parent="1" source="j7wJihQbIBhU1Gi72-DJ-47" target="j7wJihQbIBhU1Gi72-DJ-48">
          <mxGeometry width="50" height="50" relative="1" as="geometry">
            <mxPoint x="380" y="410" as="sourcePoint" />
            <mxPoint x="430" y="360" as="targetPoint" />
          </mxGeometry>
        </mxCell>
        <mxCell id="j7wJihQbIBhU1Gi72-DJ-53" value="" style="endArrow=classic;startArrow=classic;html=1;rounded=0;entryX=0;entryY=0.5;entryDx=0;entryDy=0;entryPerimeter=0;exitX=1;exitY=0.5;exitDx=0;exitDy=0;exitPerimeter=0;" edge="1" parent="1" source="j7wJihQbIBhU1Gi72-DJ-49" target="j7wJihQbIBhU1Gi72-DJ-50">
          <mxGeometry width="50" height="50" relative="1" as="geometry">
            <mxPoint x="380" y="410" as="sourcePoint" />
            <mxPoint x="430" y="360" as="targetPoint" />
          </mxGeometry>
        </mxCell>
        <mxCell id="j7wJihQbIBhU1Gi72-DJ-55" value="" style="endArrow=classic;startArrow=classic;html=1;rounded=0;entryX=1;entryY=0.5;entryDx=0;entryDy=0;entryPerimeter=0;exitX=0.5;exitY=0;exitDx=0;exitDy=0;exitPerimeter=0;" edge="1" parent="1" source="j7wJihQbIBhU1Gi72-DJ-48" target="j7wJihQbIBhU1Gi72-DJ-50">
          <mxGeometry width="50" height="50" relative="1" as="geometry">
            <mxPoint x="675" y="340" as="sourcePoint" />
            <mxPoint x="600" y="285" as="targetPoint" />
            <Array as="points">
              <mxPoint x="675" y="285" />
            </Array>
          </mxGeometry>
        </mxCell>
        <mxCell id="j7wJihQbIBhU1Gi72-DJ-56" value="" style="html=1;outlineConnect=0;whiteSpace=wrap;fillColor=none;shape=mxgraph.archimate3.application;appType=resource;archiType=square;" vertex="1" parent="1">
          <mxGeometry x="-20" y="240" width="875" height="170" as="geometry" />
        </mxCell>
        <mxCell id="j7wJihQbIBhU1Gi72-DJ-58" value="Arquitectura Institucional" style="text;html=1;align=center;verticalAlign=middle;whiteSpace=wrap;rounded=0;fontFamily=Lucida Console;fontSize=16;fontStyle=1" vertex="1" parent="1">
          <mxGeometry y="250" width="110" height="30" as="geometry" />
        </mxCell>
      </root>
    </mxGraphModel>
  </diagram>
</mxfile>
